<?xml version="1.0" encoding="utf-8"?>
<!-- Generator: Adobe Illustrator 24.0.0, SVG Export Plug-In . SVG Version: 6.00 Build 0)  -->
<svg version="1.1" id="Calque_1" xmlns="http://www.w3.org/2000/svg" xmlns:xlink="http://www.w3.org/1999/xlink" x="0px" y="0px"
	 viewBox="0 0 595.3 841.9" style="enable-background:new 0 0 595.3 841.9;" xml:space="preserve">
<style type="text/css">
	.st0{fill:#FFFFFF;stroke:#000000;stroke-width:13;stroke-miterlimit:10;}
</style>
<g>
	<path class="st0" d="M304,385c70.7,0,128-57.3,128-128s-57.3-128-128-128s-128,57.3-128,128S233.3,385,304,385z M393.6,417h-16.7
		c-22.2,10.2-46.9,16-72.9,16s-50.6-5.8-72.9-16h-16.7C140.2,417,80,477.2,80,551.4V593c0,26.5,21.5,48,48,48h352
		c26.5,0,48-21.5,48-48v-41.6C528,477.2,467.8,417,393.6,417z"/>
</g>
</svg>
