<?xml version="1.0" encoding="utf-8"?>
<!-- Generator: Adobe Illustrator 24.0.0, SVG Export Plug-In . SVG Version: 6.00 Build 0)  -->
<svg version="1.1" id="Calque_1" xmlns="http://www.w3.org/2000/svg" xmlns:xlink="http://www.w3.org/1999/xlink" x="0px" y="0px"
	 viewBox="0 0 595.3 841.9" style="enable-background:new 0 0 595.3 841.9;" xml:space="preserve">
<style type="text/css">
	.st0{fill:#FFFFFF;stroke:#000000;stroke-width:13;stroke-miterlimit:10;}
</style>
<g>
	<path class="st0" d="M537.8,440.3l47.3-208c3.4-15-8-29.3-23.4-29.3H168.8l-9.2-44.8c-2.3-11.2-12.1-19.2-23.5-19.2H33.6
		c-13.3,0-24,10.7-24,24v16c0,13.3,10.7,24,24,24h69.9l70.2,343.4c-16.8,9.7-28.1,27.8-28.1,48.6c0,30.9,25.1,56,56,56
		s56-25.1,56-56c0-15.7-6.4-29.8-16.8-40h209.6c-10.4,10.2-16.8,24.3-16.8,40c0,30.9,25.1,56,56,56s56-25.1,56-56
		c0-22.2-12.9-41.3-31.6-50.4l5.5-24.3c3.4-15-8-29.3-23.4-29.3H227.8l-6.5-32h293.1C525.6,459,535.3,451.2,537.8,440.3z"/>
</g>
</svg>
