<?xml version="1.0" encoding="utf-8"?>
<!-- Generator: Adobe Illustrator 24.0.0, SVG Export Plug-In . SVG Version: 6.00 Build 0)  -->
<svg version="1.1" id="Calque_1" xmlns="http://www.w3.org/2000/svg" xmlns:xlink="http://www.w3.org/1999/xlink" x="0px" y="0px"
	 viewBox="0 0 595.3 841.9" style="enable-background:new 0 0 595.3 841.9;" xml:space="preserve">
<style type="text/css">
	.st0{fill:none;stroke:#FFFFFF;stroke-width:8;stroke-miterlimit:10;}
	.st1{fill:none;stroke:#9B4996;stroke-width:8;stroke-miterlimit:10;}
	.st2{fill:#FFFFFF;}
	.st3{fill:#9B4996;}
	.st4{font-family:'UniversityRegular';}
	.st5{font-size:41.1412px;}
	.st6{font-family:'MyriadPro-Regular';}
</style>
<path class="st0" d="M357.9,297.4c7.9-8.1,15.9-16.1,23.8-24.2"/>
<path class="st0" d="M420.9,339.6c13.1-12.3,26.3-24.5,39.4-36.8"/>
<path class="st0" d="M300,268.5c23.1,14.5,43.3,23.4,57.9,28.9c18.1,6.8,27.6,8.5,33.7,9.2c11.5,1.4,21.2,0.8,34.4,0
	c4.9-0.3,12-1.1,26.2-2.7c6.6-0.7,8.9-1.1,12.3-2c6.5-1.9,8.9-4,18-8.9c8.8-4.7,13.2-7,17.7-8.2c4.8-1.3,12.2-2.2,22.1,0.3"/>
<path class="st0" d="M81.5,374c57.8-22.7,78.6-29.8,82-29.6c0.3,0,1.9,0.2,3.4-0.7c2.8-1.6,2.9-5,4.1-7.1c2.7-4.8,10.3-1.3,16.3-4.4
	c5.8-3.1,2.9-9.1,8.5-15.7c4.4-5.1,9.1-5.4,17.4-8.5c6.6-2.5,7-3.6,25.9-15.1c30.8-18.7,28.9-15.2,36.4-21.4
	c3.9-3.2,2.9-2.9,26.6-30.6c14.9-17.4,22.1-25.5,33-26.9c2.2-0.3,8.1-1,14,2c3.8,2,6,4.8,10.6,10.6c2.2,2.7,4,5.5,7.5,10.9
	c5.4,8.2,8.1,12.4,8.6,15c1.1,5.8-1.1,7.7,1,12.2c0.5,1.1,1.7,3.3,7.1,7.5c4.7,3.6,8.6,5.5,17,9.5c8.7,4.2,13.1,6.3,14.6,6.8
	c5.9,2.1,11.9,4.2,19.1,4.1c10.3-0.2,17.7-5.1,24.5-9.5c8.4-5.5,8.3-7.7,20.8-18c10.6-8.7,16-13.1,21.4-13.3
	c9.8-0.3,20,7.3,22.8,15.7c2.3,7,1.7,13.3,1.7,13.3c-0.3,3-1,5.2,0,8.2c1.2,3.6,4,5.5,4.8,6.1c3.6,2.8,6.9,11,6.5,34.4"/>
<path class="st0" d="M303.1,360c-8.9-7.1-30.4-23-48.7-21.4c-2.7,0.2-11.6,1.4-21.8,3.4c-7,1.4-8.7,2.4-15,3.4
	c-10.8,1.8-16.3,2.6-21.4-0.3c-1.9-1.1-6-3.9-8.5-11.2"/>
<path class="st0" d="M288.1,262.3c6.2,4.5,11.3,6.4,11.9,6.1c0.7-0.3,1.4-0.8,1.4-0.8s0,0,0,0c1-0.7,3.9-5.9,5.3-7.7
	c0.7-0.9,0.8-0.7,4.1-3.1c4.5-3.2,7.4-5.8,7.8-6.1c3.1-2.4,17-0.2,60.5,17.5"/>
<path class="st0" d="M219.8,366c-10-3.7-18.3-4.9-24-5.3c-11.4-0.8-18.9,1.2-25.2-3.7c-3.9-3.1-5.6-7.5-6.5-10.6"/>
<path class="st0" d="M82.1,415.2c4.6,3,11.5,7.2,20.4,11.2c10,4.5,18.7,7.1,25.5,8.9c42.7,10.9,85.4,13.6,85.4,13.6
	c56.4,3.6,97.7,4.4,97.7,4.4s53,1.1,124.3-0.3c20.2-0.4,36.1-1,36.1-1c11.9-0.5,10.8-0.6,16.7-0.7c9-0.2,11.2,0.1,15.3-0.7
	c0,0,8.3-1.6,16-6.8c11.2-7.6,18.4-24.4,18-43.9"/>
<path class="st0" d="M285.4,422c21.4,0.5,42.9,0.9,64.3,1.4"/>
<path class="st0" d="M476.4,418.9c15-0.1,30-0.2,44.9-0.3"/>
<path class="st0" d="M407.6,403.6c-15.4,0.3-27.1,0.7-33.4,7.8c-2.2,2.5-2.9,4.9-3.1,5.8c-1.2,5.2,1.1,10.8,4.4,14
	c2.7,2.6,5.9,3.5,15.3,4.1c11.2,0.7,13.3-0.1,26.6,0c4.8,0,13.1,0.2,23.8-0.7c2.1-0.2,4.5-0.3,7.5-1.4c2.2-0.8,10.9-3.9,12.5-11.6
	c1.1-5.1-1.6-9.4-2.3-10.6c-2.8-4.5-7.8-7.4-12-7.6c-0.7,0-1.2,0-4.2,0c-2.8,0-3.7-0.1-5.9-0.1c-2.2,0-3.8,0.1-4.5,0.1
	C426.7,403.7,414.7,403.5,407.6,403.6z"/>
<path class="st1" d="M87.3,381.8c-0.4,0.2-6.9,3.2-8.2,9.5c-1.6,8.4,7.5,15.3,8.6,16.1c5.8,4.2,11.6,4.3,25.5,4.3
	c19.5-0.1,28-0.4,36.4-0.3c18.6,0,16.9,1.5,33,1.4c16-0.2,15.2-1.6,37.1-2.4c13.9-0.5,18,0,27.9-1.4c10.6-1.4,18-3.6,22.5-4.8
	c16.6-4.5,23.3-4.4,53.1-9.2c48.4-7.8,43.7-10.2,73.2-13.6c8.5-1,30.8-3.4,58.9-2.7c23.4,0.5,35.1,0.8,41.9,4.1
	c4.7,2.3,12.6,7,22.8,5.8c2.4-0.3,7.3-0.8,11.6-4.1c10.2-7.7,12.1-26.6,4.1-38.1c-6.1-8.9-16.5-11-22.8-12.3
	c-16.1-3.3-27.7,1.4-46,6.5c-23.4,6.4-16.9,2.2-50,10.2c-28.4,6.9-49.6,14-86.5,21.4c-13.2,2.7-21.9,4.1-32.3,1
	c-3.4-1-5.1-1.9-30.6-14.3c-9.6-4.6-14.4-6.9-18.4-6.1c-7.1,1.5-12.4,8.3-19.1,17c-6,7.8-5.2,9-8.2,10.9c-8.4,5.2-17.5-3-33-5.4
	c-14.4-2.2-12.6,3.9-42.2,6.8c-23,2.2-34.5,3.3-42.6,0.7C100.3,381.7,93.6,379,87.3,381.8z"/>
<line class="st0" x1="223.2" y1="302.8" x2="237.7" y2="321.2"/>
<line class="st0" x1="241.5" y1="291.5" x2="254.4" y2="307.4"/>
<line class="st0" x1="257.9" y1="281.9" x2="273.1" y2="301.1"/>
<line class="st0" x1="273.3" y1="273.2" x2="290.8" y2="291.5"/>
<circle class="st2" cx="82" cy="373.8" r="4"/>
<circle class="st2" cx="82.5" cy="415.4" r="4"/>
<circle class="st2" cx="285.4" cy="422" r="4"/>
<circle class="st2" cx="349.7" cy="423.4" r="4"/>
<circle class="st2" cx="476.7" cy="418.9" r="4"/>
<circle class="st2" cx="520.6" cy="418.6" r="4"/>
<circle class="st2" cx="537" cy="329.1" r="4"/>
<circle class="st2" cx="537.7" cy="399.9" r="4"/>
<circle class="st2" cx="421.2" cy="339.2" r="4"/>
<circle class="st2" cx="219.5" cy="365.9" r="4"/>
<circle class="st2" cx="303" cy="360" r="4"/>
<circle class="st2" cx="237.7" cy="321.2" r="4"/>
<circle class="st2" cx="254.4" cy="307.4" r="4"/>
<circle class="st2" cx="273.1" cy="301.1" r="4"/>
<circle class="st2" cx="290.8" cy="291.5" r="4"/>
<text transform="matrix(1 0 0 1 83.3432 522.6958)"><tspan x="0" y="0" class="st3 st4 st5">chope</tspan><tspan x="167.5" y="0" class="st3 st6 st5">-</tspan><tspan x="180.1" y="0" class="st3 st4 st5">Sneakers</tspan></text>
<text transform="matrix(1 0 0 1 79.5931 513.9835)"><tspan x="0" y="0" class="st2 st4 st5">chope</tspan><tspan x="167.5" y="0" class="st2 st6 st5">-</tspan><tspan x="180.1" y="0" class="st2 st4 st5">Sneakers</tspan></text>
</svg>
