<?xml version="1.0" encoding="utf-8"?>
<!-- Generator: Adobe Illustrator 24.0.0, SVG Export Plug-In . SVG Version: 6.00 Build 0)  -->
<svg version="1.1" id="Calque_1" xmlns="http://www.w3.org/2000/svg" xmlns:xlink="http://www.w3.org/1999/xlink" x="0px" y="0px"
	 viewBox="0 0 595.3 841.9" style="enable-background:new 0 0 595.3 841.9;" xml:space="preserve">
<style type="text/css">
	.st0{fill:#FFFFFF;stroke:#000000;stroke-width:13;stroke-miterlimit:10;}
</style>
<g>
	<path class="st0" d="M546.7,564.7L447,465c-4.5-4.5-10.6-7-17-7h-16.3c27.6-35.3,44-79.7,44-128c0-114.9-93.1-208-208-208
		s-208,93.1-208,208s93.1,208,208,208c48.3,0,92.7-16.4,128-44v16.3c0,6.4,2.5,12.5,7,17l99.7,99.7c9.4,9.4,24.6,9.4,33.9,0
		l28.3-28.3C556,589.3,556,574.1,546.7,564.7z M249.7,458c-70.7,0-128-57.2-128-128c0-70.7,57.2-128,128-128
		c70.7,0,128,57.2,128,128C377.7,400.7,320.5,458,249.7,458z"/>
</g>
</svg>
